<svg width="80" height="96" viewBox="0 0 80 80" fill="none" xmlns="http://www.w3.org/2000/svg">
                  <path d="M79.8553 64.7676C79.48 62.9609 78.418 61.4173 76.8646 60.4206C75.3113 59.4245 73.4662 59.1029 71.6669 59.5143L63.3282 61.4235V58.0146C65.0006 56.4393 66.7419 54.3824 67.9803 52.5026C70.152 49.206 71.6888 45.5861 72.5482 41.7451C73.5699 37.1754 73.5919 32.3378 72.6111 27.7534C72.4304 26.9099 71.5997 26.3716 70.7562 26.5529C69.9121 26.7329 69.375 27.5636 69.555 28.4077C70.4425 32.5538 70.423 36.93 69.4983 41.0627C68.7219 44.5332 67.3328 47.8041 65.3705 50.7832C64.7888 51.6664 64.0832 52.5929 63.3282 53.4779V36.1586C63.3282 35.2955 62.6288 34.5961 61.7657 34.5961H49.4055V17.9103C49.4055 17.0497 48.7091 16.3508 47.8485 16.3478L33.9258 16.3008C33.9239 16.3008 33.9227 16.3008 33.9209 16.3008C33.5071 16.3008 33.1103 16.4644 32.818 16.7567C32.5238 17.0497 32.3584 17.4476 32.3584 17.8633V26.5431H19.9963C19.1339 26.5431 18.4338 27.2426 18.4338 28.1056V43.5786H14.9524V41.4564C14.9524 40.594 14.2529 39.8945 13.3899 39.8945H11.7871C11.5143 38.3925 11.3562 36.8666 11.319 35.3431C11.2274 31.6389 11.8146 28.0146 13.0634 24.5698C13.3545 23.7666 13.6853 22.9658 14.046 22.1907C14.4104 21.4082 14.071 20.4786 13.2892 20.1143C12.5067 19.7511 11.5771 20.0892 11.2134 20.8717C10.8136 21.7299 10.4474 22.6161 10.1257 23.5048C8.7439 27.3164 8.09448 31.3258 8.19458 35.42C8.23181 36.9166 8.37463 38.4144 8.61694 39.8945H1.5625C0.699463 39.8945 0 40.594 0 41.457V68.9216C0 69.7847 0.699463 70.4841 1.5625 70.4841H13.3899C14.2529 70.4841 14.9524 69.7847 14.9524 68.9216V67.436H20.8301L44.6393 76.7744C46.8622 77.6466 49.1907 78.0854 51.5314 78.0854C53.092 78.0854 54.6594 77.8901 56.203 77.4977L74.8645 72.7546C78.407 71.8544 80.5987 68.3461 79.8553 64.7676ZM60.2038 37.7211V62.1388L56.0266 63.0952C55.5774 63.1977 55.1233 63.2789 54.6667 63.3424C52.926 63.5823 51.1499 63.5316 49.4275 63.1904C49.4202 63.1886 49.4128 63.1874 49.4055 63.1855V60.8162C50.5969 59.0388 50.9918 56.7854 50.3674 54.7285C50.1935 54.1548 49.9463 53.6012 49.632 53.0903C49.5605 52.9744 49.4861 52.8608 49.4086 52.7497C49.408 52.7479 49.4067 52.7467 49.4055 52.7449V37.7205H60.2038V37.7211ZM35.4834 19.4313L46.2811 19.4673V50.2632L40.2466 47.7656L35.4834 45.7936V19.4313ZM21.5588 29.6681H32.3566V44.499L30.4187 43.697C30.2289 43.6183 30.0256 43.578 29.8212 43.578H21.5588V29.6681ZM11.8274 67.3591H3.125V43.0189H10.4968C10.4999 43.0189 10.5035 43.0195 10.5072 43.0195C10.5103 43.0195 10.5127 43.0189 10.5157 43.0189H11.8274V67.3591ZM74.0948 69.7261L55.4333 74.4691C52.2119 75.2876 48.8739 75.0782 45.78 73.8655L21.6962 64.4191C21.5143 64.3476 21.3208 64.3116 21.1255 64.3116H14.9524V46.7036H29.5099L39.6197 50.8882L45.152 53.1782C47.1094 53.99 48.0463 56.2861 47.2436 58.2411C47.0825 58.6335 46.8829 59.0065 46.618 59.3391C45.6396 60.5738 44.0289 61.1183 42.5226 60.7521C42.5104 60.749 42.4982 60.746 42.486 60.7429C42.3956 60.7203 42.3059 60.6941 42.2168 60.6648L31.7035 56.623C31.618 56.5901 31.5729 56.573 31.5729 56.573C30.7678 56.2629 29.8639 56.6651 29.5538 57.4708C29.2444 58.2759 29.646 59.1804 30.4517 59.4899C30.4517 59.4899 36.3794 61.7689 40.8997 63.5121C40.9906 63.5475 41.0809 63.5804 41.1719 63.6109L44.6429 64.9458C45.6921 65.3492 46.7364 65.7508 47.8284 66.0298C49.6826 66.5034 51.6071 66.6938 53.5187 66.5895C54.5966 66.5309 55.6726 66.3819 56.7248 66.1415L62.1149 64.9079C62.1204 64.9067 62.1258 64.9043 62.1313 64.9031L72.3645 62.5605C73.338 62.3378 74.3372 62.5117 75.177 63.0506C76.0181 63.5902 76.5924 64.4258 76.7956 65.4035C77.1985 67.3402 76.012 69.239 74.0948 69.7261Z" fill="black"></path>
                  <path d="M19.9808 13.1445C20.3543 13.1445 20.7291 13.0115 21.0276 12.7417C23.8157 10.2234 27.1451 8.21472 30.6577 6.93237C34.4632 5.54321 38.635 4.95056 42.7225 5.21911C45.6479 5.41137 48.5141 6.03576 51.2412 7.07458C52.0468 7.38159 52.9502 6.97753 53.2572 6.17065C53.5648 5.36438 53.1601 4.46167 52.3532 4.15466C49.3357 3.00476 46.1643 2.31384 42.9276 2.10083C38.4098 1.8042 33.7961 2.45971 29.5859 3.99719C25.6998 5.41565 22.0163 7.63794 18.9335 10.4224C18.2926 11.001 18.2425 11.9891 18.8211 12.6294C19.1294 12.9712 19.5542 13.1445 19.9808 13.1445Z" fill="black"></path>
                  <path d="M55.4508 24.2952C55.7468 24.5522 56.1118 24.6779 56.4749 24.6779C56.9113 24.6779 57.3459 24.496 57.6554 24.1408L70.5106 9.34286C71.077 8.69161 71.0074 7.70467 70.3562 7.13888C69.7043 6.57308 68.718 6.64205 68.1522 7.2933L55.2964 22.0913C54.7299 22.7425 54.7995 23.7294 55.4508 24.2952Z" fill="black"></path>
                  <path d="M66.9716 17.6152C64.8085 17.6152 63.0488 19.3749 63.0488 21.538C63.0488 23.701 64.8085 25.4607 66.9716 25.4607C69.1346 25.4607 70.8943 23.7004 70.8943 21.538C70.8943 19.3749 69.1346 17.6152 66.9716 17.6152ZM66.9716 22.3357C66.5315 22.3357 66.1738 21.978 66.1738 21.538C66.1738 21.0985 66.5315 20.7402 66.9716 20.7402C67.411 20.7402 67.7693 21.0985 67.7693 21.538C67.7693 21.978 67.411 22.3357 66.9716 22.3357Z" fill="black"></path>
                  <path d="M58.2948 14.1365C60.4579 14.1365 62.2175 12.3768 62.2175 10.2137C62.2175 8.05066 60.4579 6.29102 58.2948 6.29102C56.1317 6.29102 54.3721 8.05066 54.3721 10.2137C54.3721 12.3768 56.1317 14.1365 58.2948 14.1365ZM58.2948 9.4154C58.7349 9.4154 59.0925 9.77368 59.0925 10.2137C59.0925 10.6532 58.7349 11.0115 58.2948 11.0115C57.8547 11.0115 57.4971 10.6532 57.4971 10.2137C57.4971 9.77368 57.8547 9.4154 58.2948 9.4154Z" fill="black"></path>
                  <path d="M14.4263 16.8163C14.6766 17.4168 15.2924 17.8136 15.9449 17.7794C16.59 17.7458 17.1552 17.3094 17.3548 16.6966C17.5562 16.0783 17.3365 15.374 16.8195 14.9791C16.2928 14.5775 15.553 14.5525 15.0013 14.9193C14.3891 15.3264 14.1437 16.1382 14.4263 16.8163Z" fill="black"></path>
                </svg>