<svg width="96" height="96" viewBox="0 0 96 96" fill="none" xmlns="http://www.w3.org/2000/svg">
                  <path d="M26.0638 32.9192C29.7289 32.8234 33.2118 31.3001 35.7702 28.674C38.3286 26.0478 39.7604 22.5264 39.7604 18.86C39.7604 15.1936 38.3286 11.6722 35.7702 9.04599C33.2118 6.41982 29.7289 4.89656 26.0638 4.80078C22.3382 4.85043 18.7789 6.35185 16.1434 8.98561C13.5078 11.6194 12.004 15.1776 11.9518 18.9032C11.9721 22.6308 13.4685 26.1986 16.1134 28.8255C18.7582 31.4523 22.3361 32.9243 26.0638 32.9192ZM55.4686 60.3464C55.0789 60.2132 54.6539 60.227 54.2736 60.3851C53.8932 60.5432 53.5838 60.8348 53.4034 61.2051C53.2229 61.5754 53.184 61.9988 53.2938 62.3958C53.4037 62.7927 53.6547 63.1359 53.9998 63.3608C66.2494 69.332 79.5838 56.7944 74.1598 44.0648C70.147 35.0504 59.9518 32.7944 51.9166 37.796C51.7275 37.912 51.5631 38.0641 51.4328 38.2436C51.3025 38.4231 51.2088 38.6265 51.1571 38.8423C51.1054 39.058 51.0967 39.2818 51.1314 39.5009C51.1662 39.72 51.2438 39.9301 51.3598 40.1192C51.4758 40.3083 51.6279 40.4727 51.8074 40.603C51.9869 40.7333 52.1904 40.827 52.4061 40.8787C52.6218 40.9304 52.8456 40.9391 53.0647 40.9043C53.2838 40.8696 53.4939 40.792 53.683 40.676C59.9518 36.836 67.891 38.42 71.0302 45.3704C75.139 55.268 64.8478 64.868 55.4398 60.3656L55.4686 60.3464ZM89.4814 55.0568L84.7774 51.6296C84.6814 51.524 84.4798 51.428 84.4798 51.236C84.5326 50.2223 84.5326 49.2065 84.4798 48.1928C84.4723 47.9794 84.5442 47.7708 84.6814 47.6072L89.2798 44.084C90.0118 43.5297 90.5423 42.7511 90.7901 41.867C91.038 40.9829 90.9897 40.042 90.6526 39.188L88.9918 35.4632C88.5959 34.6534 87.9612 33.9846 87.1732 33.5469C86.3853 33.1091 85.4821 32.9236 84.5854 33.0152L78.9982 33.9752C78.5086 34.0712 78.403 33.8792 78.307 33.7736C77.6254 33.092 76.9342 32.4104 76.2526 31.8536C76.0718 31.6715 75.9656 31.4284 75.955 31.172L76.7422 25.412C76.8483 24.5004 76.6446 23.5797 76.164 22.7978C75.6834 22.016 74.9538 21.4186 74.0926 21.1016L70.5694 19.7288C69.7157 19.3361 68.7529 19.2486 67.8424 19.481C66.9319 19.7135 66.1288 20.2517 65.5678 21.0056L62.2366 25.7C62.1406 25.9016 62.035 25.9976 61.5454 25.9976H58.6078C58.5632 26.0181 58.5149 26.0294 58.4658 26.0308C58.4167 26.0322 58.3679 26.0237 58.3221 26.0058C58.2764 25.9879 58.2348 25.9609 58.1998 25.9265C58.1647 25.8921 58.137 25.851 58.1182 25.8056L54.5854 21.1208C54.0288 20.3922 53.2445 19.8707 52.3573 19.6394C51.4701 19.408 50.531 19.48 49.6894 19.844L46.0798 21.4568C45.2091 21.7917 44.4844 22.4229 44.0331 23.2394C43.5819 24.0559 43.433 25.0053 43.6126 25.9208L44.5726 31.604C44.6038 31.8224 44.6789 32.0322 44.7934 32.2207C44.908 32.4093 45.0596 32.5727 45.239 32.701C45.4185 32.8293 45.6221 32.9199 45.8376 32.9673C46.053 33.0147 46.2759 33.0179 46.4926 32.9768C46.9222 32.8905 47.303 32.6441 47.5579 32.2877C47.8128 31.9312 47.9227 31.4912 47.8654 31.0568L46.9054 25.2968C46.8094 24.9992 47.0014 24.7016 47.395 24.6056L50.9662 23.0408C51.1148 22.9753 51.2804 22.9586 51.439 22.9931C51.5977 23.0276 51.7414 23.1115 51.8494 23.2328L55.3726 27.8408C55.738 28.3984 56.2537 28.8413 56.8602 29.1182C57.4667 29.3951 58.1391 29.4947 58.7998 29.4056H61.5454C62.2109 29.4342 62.8731 29.2974 63.4728 29.0076C64.0725 28.7178 64.5911 28.2839 64.9822 27.7448L68.3134 23.0408C68.4118 22.9064 68.5559 22.8127 68.7186 22.7773C68.8813 22.742 69.0514 22.7674 69.1966 22.8488L72.9598 24.2984C73.0558 24.3944 73.4494 24.4904 73.3438 24.98L72.5662 30.6632C72.4977 31.3458 72.5839 32.0351 72.8182 32.68C73.0525 33.3248 73.429 33.9086 73.9198 34.388C74.5732 34.8686 75.1663 35.4262 75.6862 36.0488C76.1573 36.5846 76.7569 36.9917 77.4286 37.2319C78.1004 37.472 78.8223 37.5373 79.5262 37.4216L85.0078 36.4616C85.1947 36.4642 85.3784 36.5097 85.5448 36.5946C85.7113 36.6794 85.856 36.8015 85.9678 36.9512L87.4366 40.4744C87.5262 40.6314 87.5551 40.8157 87.518 40.9926C87.4809 41.1695 87.3802 41.3267 87.235 41.4344L82.627 44.8616C82.0906 45.2718 81.6661 45.8104 81.3927 46.4278C81.1192 47.0452 81.0055 47.7215 81.0622 48.3944C81.1103 49.2737 81.1103 50.155 81.0622 51.0344C81.0525 51.6966 81.1986 52.3518 81.4888 52.9472C81.7789 53.5425 82.205 54.0613 82.7326 54.4616L87.5326 57.8984C87.7246 57.9944 87.8206 58.2824 87.7246 58.676L86.1502 62.4008C86.1502 62.4968 86.0542 62.7944 85.459 62.7944L79.7758 62.0072C79.0838 61.9488 78.3876 62.051 77.7416 62.3058C77.0955 62.5605 76.517 62.961 76.051 63.476C75.572 64.1023 75.0138 64.6638 74.3902 65.1464C73.8861 65.6379 73.5071 66.243 73.2849 66.9111C73.0628 67.5792 73.004 68.2909 73.1134 68.9864L73.9966 74.468C74.0299 74.6489 74.0105 74.8355 73.9407 75.0057C73.8709 75.1759 73.7537 75.3225 73.603 75.428L70.0798 76.8968C69.9234 76.9853 69.7403 77.0146 69.5641 76.9794C69.3878 76.9441 69.2301 76.8467 69.1198 76.7048L65.6638 72.1928C65.233 71.6247 64.6657 71.1746 64.0146 70.8843C63.3634 70.594 62.6495 70.4728 61.939 70.532C61.1258 70.628 60.3042 70.628 59.491 70.532C58.8188 70.5236 58.1549 70.6802 57.5574 70.9882C56.9598 71.2962 56.447 71.746 56.0638 72.2984L52.531 76.9928C52.4514 77.1217 52.3249 77.2147 52.1781 77.2523C52.0313 77.2899 51.8756 77.2691 51.7438 77.1944L48.2206 75.8408C48.0612 75.7744 47.9227 75.6662 47.8196 75.5276C47.7166 75.3891 47.6528 75.2253 47.635 75.0536L48.4126 69.2936C48.4601 68.8464 48.3342 68.398 48.0609 68.0408C47.7877 67.6836 47.3879 67.4448 46.9438 67.3736C46.5039 67.3613 46.0732 67.5005 45.7236 67.7679C45.3741 68.0353 45.1271 68.4146 45.0238 68.8424L44.1598 74.6504C44.1127 75.5515 44.341 76.4455 44.8143 77.2138C45.2875 77.982 45.9834 78.588 46.8094 78.9512L50.5342 80.4296C51.0013 80.6173 51.4996 80.715 52.003 80.7176C52.6573 80.702 53.299 80.5343 53.8772 80.2277C54.4554 79.9211 54.9542 79.484 55.3342 78.9512L58.7614 74.3528C58.963 74.0552 59.155 73.9592 59.2606 73.9592C60.2695 74.0552 61.2853 74.0552 62.2942 73.9592C62.407 73.9661 62.5172 73.996 62.6179 74.0472C62.7186 74.0984 62.8078 74.1697 62.8798 74.2568L66.355 78.7208C66.933 79.4507 67.7286 79.9774 68.6263 80.2243C69.524 80.4711 70.4771 80.4253 71.347 80.0936L74.9758 78.5288C75.8127 78.1373 76.5021 77.4879 76.9427 76.6758C77.3833 75.8637 77.5519 74.9318 77.4238 74.0168L76.4638 68.3336C76.4638 67.9496 76.5598 67.844 76.6654 67.748C77.3545 67.1107 77.9962 66.4241 78.5854 65.6936C78.77 65.5164 79.0117 65.4109 79.267 65.396L85.027 66.1832C85.9402 66.3017 86.8665 66.1032 87.651 65.621C88.4355 65.1387 89.0308 64.4019 89.3374 63.5336L90.8062 60.0104C91.1921 59.1482 91.2662 58.1787 91.0158 57.268C90.7653 56.3572 90.2059 55.5619 89.4334 55.0184L89.4814 55.0568ZM47.3374 59.9528L47.2414 47.9048C47.2414 40.5512 40.963 30.9512 32.8414 34.388C28.4856 36.0492 23.6708 36.0492 19.315 34.388C11.2702 30.8552 4.7998 40.5512 4.7998 47.9048V59.9528C4.7998 62.0072 5.875 64.7528 10.6846 66.3176L14.3038 67.4984V85.3256C14.3011 86.1068 14.4547 86.8807 14.7556 87.6017C15.0565 88.3227 15.4987 88.9761 16.056 89.5236C16.6133 90.0711 17.2746 90.5016 18.0008 90.7896C18.727 91.0776 19.5035 91.2174 20.2846 91.2008H31.8526C32.6285 91.2164 33.3995 91.0752 34.1194 90.7855C34.8393 90.4958 35.4932 90.0636 36.0419 89.5149C36.5906 88.9662 37.0228 88.3122 37.3125 87.5923C37.6022 86.8724 37.7435 86.1014 37.7278 85.3256V67.6904L41.4526 66.3176C43.027 65.732 47.3374 64.1672 47.3374 59.9528ZM43.9102 59.9528C43.9102 61.7192 41.6542 62.5928 40.2814 63.0824L37.7278 64.0424V48.884C37.7358 48.4312 37.5666 47.9932 37.2564 47.6632C36.9462 47.3333 36.5194 47.1375 36.067 47.1176C35.835 47.1176 35.6053 47.1633 35.391 47.252C35.1767 47.3408 34.982 47.4709 34.818 47.6349C34.654 47.799 34.5238 47.9937 34.4351 48.208C34.3463 48.4223 34.3006 48.652 34.3006 48.884V85.364C34.3045 85.6865 34.2438 86.0066 34.1221 86.3053C34.0005 86.6041 33.8203 86.8755 33.5922 87.1036C33.3641 87.3317 33.0927 87.5118 32.794 87.6335C32.4952 87.7551 32.1752 87.8158 31.8526 87.812H20.3326C20.0031 87.8249 19.6745 87.7711 19.3663 87.6539C19.0581 87.5367 18.7768 87.3584 18.5392 87.1298C18.3016 86.9012 18.1127 86.6269 17.9837 86.3235C17.8547 86.0201 17.7884 85.6937 17.7886 85.364V48.884C17.794 48.4303 17.6228 47.9923 17.311 47.6626C16.9993 47.3329 16.5715 47.1375 16.1182 47.1176C15.8862 47.1176 15.6565 47.1633 15.4422 47.252C15.2279 47.3408 15.0332 47.4709 14.8692 47.6349C14.7051 47.799 14.575 47.9937 14.4863 48.208C14.3975 48.4223 14.3518 48.652 14.3518 48.884V63.8696L11.8078 63.0824C8.22701 61.9112 8.22701 60.4808 8.22701 59.9528V47.9048C8.22701 43.4984 12.2494 34.9736 17.9326 37.5176C23.1288 39.5724 28.9124 39.5724 34.1086 37.5176C39.8686 35.0696 43.8046 43.2776 43.8046 47.9048L43.9102 59.9528ZM26.0638 8.22798C28.8823 8.22798 31.5854 9.34763 33.5784 11.3406C35.5714 13.3336 36.691 16.0367 36.691 18.8552C36.691 21.6737 35.5714 24.3768 33.5784 26.3697C31.5854 28.3627 28.8823 29.4824 26.0638 29.4824C23.4782 29.4814 20.9829 28.5319 19.0507 26.8138C17.1185 25.0957 15.8838 22.7285 15.5806 20.1608C18.0674 20.7618 20.6715 20.6688 23.1091 19.8918C25.5467 19.1148 27.7243 17.6837 29.4046 15.7544C29.6212 15.4115 29.7088 15.0028 29.6518 14.6012C29.5947 14.1997 29.3967 13.8316 29.0931 13.5626C28.7896 13.2937 28.4002 13.1415 27.9947 13.1332C27.5893 13.125 27.1941 13.2612 26.8798 13.5176C25.5163 15.06 23.737 16.1765 21.755 16.7333C19.7731 17.2901 17.6726 17.2635 15.7054 16.6568C16.2178 14.2842 17.5228 12.1568 19.4056 10.6248C21.2883 9.09273 23.6366 8.24742 26.0638 8.22798Z" fill="black"></path>
                </svg>