<svg width="52" height="52" viewBox="0 0 52 52" fill="none" xmlns="http://www.w3.org/2000/svg">
                            <g clip-path="url(#clip0_53_7830)">
                              <path d="M51.9059 42.0991C51.662 40.9248 50.9717 39.9215 49.962 39.2736C48.9523 38.6262 47.753 38.4171 46.5834 38.6845L41.1633 39.9254V37.7097C42.2504 36.6858 43.3822 35.3488 44.1872 34.1269C45.5988 31.9841 46.5977 29.6311 47.1563 27.1345C47.8204 24.1642 47.8347 21.0197 47.1972 18.0399C47.0798 17.4916 46.5398 17.1417 45.9915 17.2595C45.4428 17.3766 45.0937 17.9165 45.2108 18.4652C45.7876 21.1602 45.7749 24.0047 45.1739 26.691C44.6692 28.9468 43.7663 31.0728 42.4908 33.0093C42.1127 33.5833 41.6541 34.1856 41.1633 34.7608V23.5033C41.1633 22.9423 40.7087 22.4876 40.1477 22.4876H32.1136V11.6419C32.1136 11.0825 31.6609 10.6282 31.1015 10.6263L22.0517 10.5957C22.0506 10.5957 22.0498 10.5957 22.0486 10.5957C21.7796 10.5957 21.5217 10.702 21.3317 10.8921C21.1405 11.0825 21.0329 11.3412 21.0329 11.6113V17.2532H12.9976C12.437 17.2532 11.982 17.7079 11.982 18.2688V28.3263H9.71905V26.9469C9.71905 26.3863 9.2644 25.9316 8.70343 25.9316H7.66162C7.48428 24.9553 7.38153 23.9635 7.35733 22.9732C7.29782 20.5655 7.67947 18.2097 8.49118 15.9706C8.68042 15.4485 8.89544 14.928 9.12991 14.4241C9.36676 13.9155 9.14617 13.3113 8.63797 13.0745C8.12936 12.8384 7.52514 13.0582 7.28869 13.5668C7.02884 14.1246 6.7908 14.7007 6.58172 15.2783C5.68353 17.7559 5.26141 20.362 5.32647 23.0232C5.35067 23.996 5.44351 24.9696 5.60101 25.9316H1.01562C0.454651 25.9316 0 26.3863 0 26.9473V44.7992C0 45.3602 0.454651 45.8149 1.01562 45.8149H8.70343C9.2644 45.8149 9.71905 45.3602 9.71905 44.7992V43.8336H13.5395L29.0155 49.9035C30.4604 50.4705 31.9739 50.7557 33.4954 50.7557C34.5098 50.7557 35.5286 50.6288 36.5319 50.3737L48.6619 47.2907C50.9645 46.7055 52.3892 44.4251 51.9059 42.0991ZM39.1325 24.5189V40.3904L36.4173 41.0121C36.1253 41.0787 35.8301 41.1315 35.5334 41.1727C34.4019 41.3287 33.2474 41.2957 32.1279 41.074C32.1231 41.0728 32.1183 41.072 32.1136 41.0708V39.5307C32.888 38.3754 33.1447 36.9107 32.7388 35.5737C32.6257 35.2008 32.4651 34.841 32.2608 34.5089C32.2143 34.4335 32.1659 34.3597 32.1156 34.2875C32.1152 34.2863 32.1144 34.2855 32.1136 34.2844V24.5185H39.1325V24.5189ZM23.0642 12.6305L30.0827 12.6539V32.6713L26.1603 31.0478L23.0642 29.766V12.6305ZM14.0132 19.2845H21.0318V28.9246L19.7721 28.4033C19.6488 28.3521 19.5167 28.3259 19.3837 28.3259H14.0132V19.2845ZM7.6878 43.7836H2.03125V27.9625H6.82293C6.82492 27.9625 6.8273 27.9629 6.82968 27.9629C6.83166 27.9629 6.83325 27.9625 6.83523 27.9625H7.6878V43.7836ZM48.1616 45.3221L36.0317 48.4051C33.9377 48.9371 31.768 48.801 29.757 48.0127L14.1025 41.8726C13.9843 41.8262 13.8585 41.8028 13.7316 41.8028H9.71905V30.3575H19.1814L25.7528 33.0775L29.3488 34.566C30.6211 35.0937 31.2301 36.5862 30.7084 37.8569C30.6036 38.112 30.4739 38.3544 30.3017 38.5706C29.6658 39.3732 28.6188 39.7271 27.6397 39.489C27.6317 39.487 27.6238 39.4851 27.6159 39.4831C27.5571 39.4684 27.4988 39.4513 27.4409 39.4323L20.6073 36.8052C20.5517 36.7837 20.5224 36.7726 20.5224 36.7726C19.9991 36.5711 19.4115 36.8325 19.21 37.3562C19.0088 37.8795 19.2699 38.4675 19.7936 38.6686C19.7936 38.6686 23.6466 40.15 26.5848 41.283C26.6439 41.306 26.7026 41.3275 26.7617 41.3473L29.0179 42.215C29.6999 42.4772 30.3787 42.7382 31.0884 42.9195C32.2937 43.2274 33.5446 43.3512 34.7871 43.2833C35.4877 43.2453 36.1872 43.1485 36.8711 42.9921L40.3746 42.1904C40.3782 42.1896 40.3818 42.188 40.3854 42.1872L47.0369 40.6645C47.6697 40.5197 48.3191 40.6328 48.865 40.9831C49.4117 41.3338 49.785 41.8769 49.9171 42.5125C50.179 43.7713 49.4077 45.0055 48.1616 45.3221Z" fill="#1A4137"></path>
                              <path d="M12.9885 8.54394C13.2313 8.54394 13.4749 8.45745 13.6689 8.2821C15.4812 6.6452 17.6453 5.33957 19.9285 4.50604C22.4021 3.60309 25.1137 3.21786 27.7706 3.39242C29.6721 3.51739 31.5352 3.92324 33.3077 4.59848C33.8314 4.79803 34.4186 4.5354 34.6181 4.01092C34.8181 3.48684 34.5551 2.90008 34.0306 2.70053C32.0692 1.95309 30.0078 1.504 27.9039 1.36554C24.9673 1.17273 21.9685 1.59881 19.2318 2.59817C16.7059 3.52017 14.3116 4.96466 12.3077 6.77453C11.8912 7.15063 11.8586 7.79293 12.2347 8.2091C12.4351 8.43127 12.7112 8.54394 12.9885 8.54394Z" fill="#1A4137"></path>
                              <path d="M36.0429 15.7932C36.2353 15.9602 36.4725 16.0419 36.7086 16.0419C36.9922 16.0419 37.2747 15.9237 37.4758 15.6928L45.8317 6.07413C46.1999 5.65082 46.1547 5.00931 45.7314 4.64154C45.3077 4.27377 44.6665 4.3186 44.2988 4.74191L35.9425 14.3606C35.5743 14.7839 35.6195 15.4254 36.0429 15.7932Z" fill="#1A4137"></path>
                              <path d="M43.5322 11.4492C42.1262 11.4492 40.9824 12.593 40.9824 13.999C40.9824 15.405 42.1262 16.5488 43.5322 16.5488C44.9382 16.5488 46.082 15.4046 46.082 13.999C46.082 12.593 44.9382 11.4492 43.5322 11.4492ZM43.5322 14.5175C43.2462 14.5175 43.0137 14.285 43.0137 13.999C43.0137 13.7133 43.2462 13.4805 43.5322 13.4805C43.8178 13.4805 44.0507 13.7133 44.0507 13.999C44.0507 14.285 43.8178 14.5175 43.5322 14.5175Z" fill="#1A4137"></path>
                              <path d="M37.8916 9.18939C39.2976 9.18939 40.4413 8.04562 40.4413 6.63962C40.4413 5.23361 39.2976 4.08984 37.8916 4.08984C36.4856 4.08984 35.3418 5.23361 35.3418 6.63962C35.3418 8.04562 36.4856 9.18939 37.8916 9.18939ZM37.8916 6.1207C38.1776 6.1207 38.4101 6.35358 38.4101 6.63962C38.4101 6.92526 38.1776 7.15814 37.8916 7.15814C37.6055 7.15814 37.373 6.92526 37.373 6.63962C37.373 6.35358 37.6055 6.1207 37.8916 6.1207Z" fill="#1A4137"></path>
                              <path d="M9.37666 10.9308C9.53932 11.3211 9.93962 11.579 10.3637 11.5568C10.7831 11.535 11.1504 11.2513 11.2802 10.853C11.4111 10.4511 11.2683 9.9933 10.9322 9.73661C10.5899 9.47557 10.109 9.4593 9.75038 9.69773C9.35246 9.96235 9.19298 10.49 9.37666 10.9308Z" fill="#1A4137"></path>
                            </g>
                          </svg>