<svg width="57" height="83" viewBox="0 0 57 83" fill="none" xmlns="http://www.w3.org/2000/svg">
                    <path d="M48.2832 67.1208C46.0627 66.0289 43.1956 65.1462 39.887 64.5246C40.8525 63.4943 41.8398 62.3925 42.8295 61.2228C46.7823 56.5509 49.9364 51.7779 52.2042 47.0358C55.0711 41.0411 56.5247 35.0761 56.5247 29.3066C56.5247 13.2934 43.8808 0.265625 28.3395 0.265625C12.7982 0.265625 0.154297 13.2934 0.154297 29.3066C0.154297 35.0761 1.60787 41.0411 4.47478 47.036C6.74259 51.778 9.89667 56.5511 13.8495 61.2229C14.8391 62.3927 15.8265 63.4944 16.792 64.5247C13.4834 65.1464 10.6163 66.0291 8.39581 67.121C4.17257 69.1976 3.28599 71.568 3.28599 73.1907C3.28599 75.2456 4.66534 78.1687 11.2359 80.4255C15.8278 82.0026 21.9018 82.8711 28.3395 82.8711C34.7772 82.8711 40.8512 82.0026 45.4431 80.4255C52.0137 78.1687 53.393 75.2456 53.393 73.1907C53.393 71.568 52.5064 69.1976 48.2832 67.1208ZM3.28599 29.3066C3.28599 15.0726 14.525 3.4924 28.3395 3.4924C42.154 3.4924 53.393 15.0726 53.393 29.3066C53.393 41.2854 46.3901 52.0915 40.5154 59.0475C35.4688 65.0228 30.361 69.2663 28.3395 70.8575C26.3175 69.2658 21.2097 65.0223 16.1637 59.0476C10.2889 52.0915 3.28599 41.2854 3.28599 29.3066ZM44.4527 77.3644C40.1718 78.8345 34.4494 79.6443 28.3395 79.6443C22.2296 79.6443 16.5072 78.8345 12.2263 77.3644C7.93889 75.8919 6.41768 74.1957 6.41768 73.1907C6.41768 71.5146 10.4984 68.6281 19.5449 67.3383C20.8847 68.6503 22.1322 69.7925 23.2223 70.7486C21.5613 71.3399 20.5103 72.2143 20.5103 73.1907C20.5103 74.9735 24.0162 76.4175 28.3395 76.4175C32.6628 76.4175 36.1687 74.9735 36.1687 73.1907C36.1687 72.2143 35.1177 71.3399 33.4567 70.7486C34.5468 69.7925 35.7943 68.6503 37.1341 67.3383C46.1806 68.6281 50.2613 71.5146 50.2613 73.1907C50.2613 74.1957 48.7401 75.8919 44.4527 77.3644Z" fill="#1A4137"></path>
                    <path d="M50.2655 29.3062C50.2655 16.8515 40.4314 6.71875 28.3437 6.71875C16.256 6.71875 6.42188 16.8515 6.42188 29.3062C6.42188 41.7609 16.256 51.8936 28.3437 51.8936C40.4314 51.8936 50.2655 41.7609 50.2655 29.3062ZM9.55357 29.3062C9.55357 18.6307 17.9828 9.94552 28.3437 9.94552C38.7046 9.94552 47.1338 18.6307 47.1338 29.3062C47.1338 39.9816 38.7046 48.6668 28.3437 48.6668C17.9828 48.6668 9.55357 39.9816 9.55357 29.3062Z" fill="#1A4137"></path>
                    <path d="M29.9061 40.6012C29.9061 41.4923 30.6071 42.2146 31.4719 42.2146H37.7353C38.6001 42.2146 39.3011 41.4923 39.3011 40.6012V32.5343H42.4328C43.083 32.5343 43.6655 32.1204 43.8964 31.4943C44.1274 30.8681 43.9589 30.16 43.473 29.715L29.3804 16.8079C28.7871 16.2645 27.8932 16.2645 27.2999 16.8079L13.2073 29.715C12.7214 30.16 12.5529 30.8681 12.7839 31.4943C13.0148 32.1204 13.5975 32.5343 14.2476 32.5343H17.3793V40.6012C17.3793 41.4923 18.0803 42.2146 18.9452 42.2146H25.2085C26.0734 42.2146 26.7744 41.4923 26.7744 40.6012V35.761H29.9061V40.6012ZM25.2085 32.5343C24.3437 32.5343 23.6427 33.2566 23.6427 34.1477V38.9878H20.511V30.9209C20.511 30.0298 19.81 29.3075 18.9452 29.3075H18.3661L28.3402 20.1723L38.3144 29.3075H37.7353C36.8705 29.3075 36.1695 30.0298 36.1695 30.9209V38.9878H33.0378V34.1477C33.0378 33.2566 32.3367 32.5343 31.4719 32.5343H25.2085Z" fill="#1A4137"></path>
                  </svg>