<svg width="81" height="78" viewBox="0 0 81 78" fill="none" xmlns="http://www.w3.org/2000/svg">
                    <path d="M79.7591 25.2906L68.2882 16.2709V3.09606C68.1732 1.79097 67.27 0.743483 66.1032 0.5625H15.8503C14.6836 0.743677 13.7803 1.79097 13.6653 3.09606V16.1695L1.73926 25.2904C1.26686 25.6722 0.967667 26.2644 0.919922 26.9119V75.0504C1.07501 76.3716 2.009 77.4115 3.19584 77.5839H78.7577C79.7591 77.5839 80.1233 76.2664 80.1233 75.0504V26.9121C80.1233 26.3039 80.2142 25.6958 79.7591 25.2906ZM68.2882 21.1354L76.1176 27.1146L68.2882 33.7019V21.1354ZM17.3068 4.61628H64.6467V36.8438L40.9767 56.7073L17.3067 36.8438V4.61628H17.3068ZM13.6653 21.0341V33.8036L5.83595 27.1148L13.6653 21.0341ZM4.56146 31.2698L30.0522 52.7548L4.56146 71.9089V31.2698ZM8.93138 73.5304L33.1475 55.3898L39.6112 60.8623C39.9771 61.1772 40.4234 61.3547 40.8857 61.369C41.2499 61.369 41.432 61.1663 41.796 60.8623L48.5328 55.0856L73.0221 73.5304H8.93138ZM76.4818 71.1995L51.5373 52.5521L76.4818 31.2698V71.1995Z" fill="#1A4137"></path>
                  </svg>