<svg width="94" height="96" viewBox="0 0 94 94" fill="none" xmlns="http://www.w3.org/2000/svg">
                  <g clip-path="url(#clip0_56_5938)">
                    <path d="M25.1458 59.16C26.0236 58.6537 26.3241 57.5299 25.8177 56.6521C25.3107 55.775 24.1876 55.4738 23.3098 55.9801C22.432 56.4872 22.1308 57.611 22.6378 58.4881C23.1442 59.3659 24.268 59.6671 25.1458 59.16Z" fill="black"></path>
                    <path d="M17.6221 71.8309L26.8678 87.8459C28.8629 91.3055 33.3509 92.5864 36.9002 90.5346C40.4121 88.505 41.6191 84.0177 39.5874 80.5029L34.0796 70.9617L38.8494 68.2078C39.7272 67.7001 40.0284 66.5777 39.5214 65.6999L37.134 61.5648C37.4187 61.5095 39.2905 61.1424 72.2993 54.6671C76.38 54.4455 78.8248 49.9826 76.7637 46.4147L70.6621 35.8466L74.5613 29.9407C74.9442 29.3598 74.9672 28.6133 74.6194 28.0109L70.9475 21.6511C70.5997 21.0486 69.9392 20.6958 69.2471 20.7367L62.1838 21.1605L55.4101 9.42773C54.4291 7.72806 52.6713 6.69893 50.7091 6.67455C50.6855 6.67383 50.6625 6.67383 50.6389 6.67383C48.7427 6.67383 47.0215 7.61761 46.0017 9.2133L22.0183 39.7659L6.42647 48.7677C0.294007 52.3069 -1.83023 60.1742 1.7226 66.3231C4.96848 71.9457 11.8116 74.1574 17.6221 71.8309ZM36.4082 82.3395C37.4223 84.0937 36.822 86.3384 35.0628 87.3547C33.2979 88.3752 31.0503 87.7484 30.0477 86.0107L20.868 70.109L27.2278 66.4372C37.8518 84.841 36.2375 82.0448 36.4082 82.3395ZM32.2436 67.7811L30.4077 64.6012L33.5876 62.7653L35.4235 65.9452L32.2436 67.7811ZM68.3349 24.4695L70.8722 28.8643L68.6095 32.2909L64.2363 24.7155L68.3349 24.4695ZM49.0726 11.2264C49.5653 10.4203 50.347 10.3371 50.664 10.3457C50.9774 10.3493 51.7584 10.4468 52.2295 11.263L73.5838 48.2506C74.2794 49.4547 73.4339 50.9687 72.039 51.0031C71.7887 51.0088 71.6733 51.054 71.0321 51.1738L48.4436 12.049C48.9177 11.4394 48.9786 11.3806 49.0726 11.2264ZM46.0003 15.1615L67.2233 51.9211L35.1933 58.2034L25.4542 41.335L46.0003 15.1615ZM4.9025 64.4872C4.09641 63.0923 3.67041 61.5088 3.67041 59.9067C3.67041 56.6321 5.43033 53.5827 8.26241 51.9476L22.572 43.6859L31.7517 59.5854L17.4421 67.8478C13.0581 70.378 7.43337 68.8705 4.9025 64.4872Z" fill="black"></path>
                    <path d="M19.4578 60.3245C18.9508 59.4467 17.8277 59.1455 16.9499 59.6525L13.77 61.4884C12.8936 61.9947 11.7684 61.6928 11.2621 60.8164C10.755 59.9386 9.63196 59.6374 8.75416 60.1445C7.87635 60.6515 7.57514 61.7746 8.08217 62.6524C9.59324 65.27 12.9639 66.193 15.6059 64.6683L18.7858 62.8324C19.6636 62.3254 19.9649 61.203 19.4578 60.3245Z" fill="black"></path>
                    <path d="M91.2715 10.6014L81.0412 16.2942C80.1555 16.7877 79.8364 17.9057 80.3298 18.7914C80.8218 19.6764 81.9391 19.997 82.8269 19.5028L93.0565 13.81C93.943 13.3166 94.2614 12.1985 93.768 11.3128C93.2753 10.4264 92.1572 10.108 91.2715 10.6014Z" fill="black"></path>
                    <path d="M90.1985 29.6159L83.105 27.7154C82.1254 27.4529 81.1185 28.0338 80.856 29.0135C80.5935 29.9931 81.1751 30.9993 82.1548 31.2618L89.2489 33.1623C90.2343 33.4269 91.2362 32.8367 91.4972 31.8642C91.7597 30.8845 91.1781 29.8776 90.1985 29.6159Z" fill="black"></path>
                    <path d="M72.3729 3.93143L70.4703 11.0256C70.2078 12.0053 70.7887 13.0114 71.7683 13.2746C72.7473 13.5364 73.7542 12.9569 74.0174 11.9766L75.9193 4.88239C76.1818 3.90275 75.6009 2.89585 74.6212 2.63337C73.6423 2.37089 72.6354 2.95179 72.3729 3.93143Z" fill="black"></path>
                  </g>
                </svg>