<svg width="72" height="80" viewBox="0 0 72 80" fill="none" xmlns="http://www.w3.org/2000/svg">
                    <path d="M56.9976 49.4287C55.5308 47.7285 53.7616 46.8195 51.8865 46.8195C50.0265 46.8195 48.2422 47.7117 46.7149 49.4119L41.9364 54.7144C41.5433 54.4787 41.1501 54.2599 40.7721 54.0411C40.2277 53.7381 39.7136 53.4519 39.275 53.1489C34.799 49.9842 30.7313 45.86 26.8299 40.5238C24.9397 37.8641 23.6695 35.6252 22.7471 33.3527C23.987 32.0902 25.1363 30.7772 26.2553 29.5147C26.6787 29.0433 27.1021 28.5552 27.5255 28.0838C30.7011 24.5488 30.7011 19.9701 27.5255 16.435L23.3973 11.8395C22.9285 11.3177 22.4446 10.779 21.991 10.2403C21.0837 9.19664 20.131 8.1193 19.1481 7.10929C17.6813 5.49327 15.9272 4.63477 14.0824 4.63477C12.2375 4.63477 10.4532 5.49327 8.941 7.10929C8.92588 7.12612 8.92588 7.12612 8.91076 7.14296L3.7694 12.9168C1.83383 15.0715 0.729951 17.6976 0.488005 20.7444C0.125085 25.6598 1.42555 30.2385 2.42358 33.2349C4.87328 40.5911 8.53272 47.4087 13.9916 54.7144C20.6149 63.5183 28.584 70.4706 37.6873 75.3691C41.1652 77.2039 45.8076 79.3755 50.9943 79.7458C51.3119 79.7626 51.6445 79.7795 51.947 79.7795C55.4401 79.7795 58.3737 78.3823 60.6722 75.6048C60.6873 75.5711 60.7175 75.5543 60.7326 75.5206C61.519 74.4601 62.4263 73.5006 63.3789 72.4737C64.0292 71.7836 64.6945 71.0597 65.3447 70.3022C66.8418 68.5684 67.6281 66.5484 67.6281 64.4778C67.6281 62.3905 66.8267 60.3873 65.2994 58.7039L56.9976 49.4287ZM62.4111 67.1544C62.396 67.1544 62.396 67.1712 62.4111 67.1544C61.8214 67.8614 61.2165 68.501 60.5663 69.208C59.5834 70.2517 58.5854 71.3459 57.6478 72.5747C56.1205 74.3928 54.3211 75.2513 51.9621 75.2513C51.7353 75.2513 51.4933 75.2513 51.2665 75.2344C46.7754 74.9146 42.6018 72.9619 39.4716 71.2954C30.9128 66.683 23.3973 60.1348 17.1521 51.8359C11.9956 44.9173 8.54784 38.5206 6.26447 31.6525C4.85816 27.461 4.34402 24.1953 4.57085 21.1148C4.72207 19.1452 5.40254 17.5124 6.65764 16.1152L11.8141 10.375C12.5551 9.60065 13.3414 9.17981 14.1126 9.17981C15.0653 9.17981 15.8365 9.81948 16.3204 10.3582C16.3355 10.375 16.3506 10.3918 16.3657 10.4087C17.2882 11.3682 18.1652 12.3613 19.0876 13.4219C19.5564 13.9605 20.0403 14.4992 20.5242 15.0547L24.6524 19.6502C26.2553 21.4346 26.2553 23.0843 24.6524 24.8686C24.2139 25.3568 23.7905 25.845 23.3519 26.3163C22.0817 27.764 20.872 29.1107 19.5564 30.4237C19.5262 30.4573 19.4959 30.4742 19.4808 30.5078C18.1803 31.9555 18.4223 33.3695 18.6945 34.329C18.7096 34.3795 18.7247 34.43 18.7398 34.4805C19.8135 37.3759 21.3256 40.1029 23.6241 43.3518L23.6392 43.3686C27.8128 49.092 32.2132 53.5529 37.0673 56.9701C37.6873 57.4078 38.3224 57.7613 38.9272 58.0979C39.4716 58.4009 39.9857 58.6871 40.4243 58.9901C40.4848 59.0238 40.5452 59.0743 40.6057 59.108C41.1199 59.3941 41.6038 59.5288 42.1028 59.5288C43.3579 59.5288 44.1442 58.6534 44.4013 58.3673L49.5729 52.6102C50.087 52.0379 50.9036 51.3477 51.8562 51.3477C52.7938 51.3477 53.565 52.0042 54.0338 52.5766C54.0489 52.5934 54.0489 52.5934 54.064 52.6102L62.396 61.8855C63.9536 63.6025 63.9536 65.37 62.4111 67.1544Z" fill="#1A4137"></path>
                    <path d="M39.0944 18.9945C43.0563 19.7351 46.6552 21.8225 49.5283 25.0209C52.4015 28.2192 54.2614 32.2256 54.9419 36.636C55.1082 37.747 55.9702 38.5213 56.9531 38.5213C57.0741 38.5213 57.1799 38.5045 57.3009 38.4876C58.4199 38.2856 59.1608 37.1073 58.9794 35.8616C58.1628 30.5254 55.8946 25.6605 52.4317 21.8057C48.9688 17.9508 44.5987 15.4258 39.8051 14.5168C38.6861 14.3148 37.6427 15.1396 37.4462 16.3684C37.2496 17.5973 37.9754 18.7925 39.0944 18.9945Z" fill="#1A4137"></path>
                    <path d="M71.9374 35.2045C70.5915 26.4174 66.8716 18.4215 61.1556 12.0584C55.4396 5.69535 48.2569 1.55431 40.3634 0.0561302C39.2595 -0.162705 38.2161 0.67897 38.0195 1.90781C37.838 3.15349 38.579 4.315 39.698 4.53384C46.7447 5.86369 53.1714 9.58389 58.2825 15.2568C63.3936 20.9465 66.7204 28.1007 67.915 35.9451C68.0813 37.0562 68.9433 37.8305 69.9262 37.8305C70.0471 37.8305 70.153 37.8137 70.274 37.7968C71.3779 37.6117 72.1339 36.4333 71.9374 35.2045Z" fill="#1A4137"></path>
                  </svg>