<svg width="462" height="455" viewBox="0 0 462 455" fill="none" xmlns="http://www.w3.org/2000/svg">
                        <path d="M459.997 221.079C454.897 264.279 435.197 314.479 395.797 337.579C336.297 372.479 341.297 426.079 225.097 449.379C206.997 452.979 189.797 454.579 173.597 454.279C164.897 454.079 156.497 453.379 148.297 452.179C74.3971 441.379 24.6971 390.079 6.49711 328.179C-17.5029 246.679 30.3971 193.379 62.1971 161.179C93.9971 129.079 117.197 28.8789 231.197 5.07893C248.597 1.47893 266.397 -0.421065 284.097 0.0789348C324.697 1.07893 368.897 14.3789 399.497 42.1789C401.797 44.2789 403.997 46.4789 406.197 48.6789C448.897 92.3789 466.897 162.179 459.997 221.079Z" fill="#1A4137" fill-opacity="0.1"></path>
                      </svg>