<svg width="55" height="49" viewBox="0 0 55 49" fill="none" xmlns="http://www.w3.org/2000/svg">
                    <path d="M8.80043 1.91176C9.92321 -0.233244 12.9935 -0.233242 14.1162 1.91176L21.9931 16.9601C23.0387 18.9576 21.5898 21.3514 19.3352 21.3514H3.58144C1.32689 21.3514 -0.122003 18.9576 0.923544 16.9601L8.80043 1.91176Z" fill="#1A4137"></path>
                    <path d="M40.8838 1.91176C42.0065 -0.233244 45.0768 -0.233242 46.1996 1.91176L54.0765 16.9601C55.122 18.9576 53.6731 21.3514 51.4186 21.3514H35.6648C33.4102 21.3514 31.9613 18.9576 33.0069 16.9601L40.8838 1.91176Z" fill="#1A4137"></path>
                    <path d="M35.3769 48.1673C37.6314 48.1673 39.0803 45.7735 38.0348 43.776L30.1579 28.7277C29.0351 26.5827 25.9649 26.5827 24.8421 28.7277L16.9652 43.776C15.9197 45.7735 17.3685 48.1673 19.6231 48.1673H35.3769Z" fill="#1A4137"></path>
                    <path d="M8.80043 43.0895C9.92321 45.2345 12.9935 45.2345 14.1162 43.0895L21.9931 28.0411C23.0387 26.0437 21.5898 23.6499 19.3352 23.6499H3.58144C1.32689 23.6499 -0.122003 26.0437 0.923544 28.0411L8.80043 43.0895Z" fill="#1A4137"></path>
                    <path d="M51.4186 23.6499C53.6731 23.6499 55.122 26.0437 54.0765 28.0411L46.1996 43.0895C45.0768 45.2345 42.0065 45.2345 40.8838 43.0895L33.0069 28.0411C31.9613 26.0437 33.4102 23.6499 35.6648 23.6499H51.4186Z" fill="#1A4137"></path>
                  </svg>